HIERARCHY
ROOT base
{
	OFFSET 0.0 0.0 0.0
	CHANNELS 6 Xposition Yposition Zposition Zrotation Yrotation Xrotation
	JOINT root
	{
		OFFSET 0 0 0
		CHANNELS 6 Xposition Yposition Zposition Zrotation Yrotation Xrotation
		JOINT chest
		{
			OFFSET 0 4.72302 0
			CHANNELS 3 Zrotation Yrotation Xrotation
			JOINT neck
			{
				OFFSET 0 4.47788 0
				CHANNELS 3 Zrotation Yrotation Xrotation
				End Site
				{
					OFFSET 0.0 0.0 0.0
				}
			}
			JOINT right_shoulder
			{
				OFFSET -0.481 4.87 3.6622
				CHANNELS 3 Zrotation Yrotation Xrotation
				JOINT right_elbow
				{
					OFFSET 0 -5.49576 0
					CHANNELS 3 Zrotation Yrotation Xrotation
					JOINT right_wrist
					{
						OFFSET 0 -5.17894 0
						CHANNELS 3 Zrotation Yrotation Xrotation
						End Site
						{
							OFFSET 0.0 0.0 0.0
						}
					}
				}
			}
			JOINT left_shoulder
			{
				OFFSET -0.481 4.87 -3.6622
				CHANNELS 3 Zrotation Yrotation Xrotation
				JOINT left_elbow
				{
					OFFSET 0 -5.49576 0
					CHANNELS 3 Zrotation Yrotation Xrotation
					JOINT left_wrist
					{
						OFFSET 0 -5.17894 0
						CHANNELS 3 Zrotation Yrotation Xrotation
						End Site
						{
							OFFSET 0.0 0.0 0.0
						}
					}
				}
			}
		}
		JOINT right_hip
		{
			OFFSET 0 0 1.69774
			CHANNELS 3 Zrotation Yrotation Xrotation
			JOINT right_knee
			{
				OFFSET 0 -8.43092 0
				CHANNELS 3 Zrotation Yrotation Xrotation
				JOINT right_ankle
				{
					OFFSET 0 -8.1974 0
					CHANNELS 3 Zrotation Yrotation Xrotation
					End Site
					{
						OFFSET 0.0 0.0 0.0
					}
				}
			}
		}
		JOINT left_hip
		{
			OFFSET 0 0 -1.69774
			CHANNELS 3 Zrotation Yrotation Xrotation
			JOINT left_knee
			{
				OFFSET 0 -8.43092 0
				CHANNELS 3 Zrotation Yrotation Xrotation
				JOINT left_ankle
				{
					OFFSET 0 -8.1974 0
					CHANNELS 3 Zrotation Yrotation Xrotation
					End Site
					{
						OFFSET 0.0 0.0 0.0
					}
				}
			}
		}
	}
	JOINT red_arrow
	{
		OFFSET 0 0 0
		CHANNELS 3 Zrotation Yrotation Xrotation
		End Site
		{
			OFFSET 0.0 0.0 0.0
		}
	}
	JOINT blue_arrow
	{
		OFFSET 0 0 0
		CHANNELS 3 Zrotation Yrotation Xrotation
		End Site
		{
			OFFSET 0.0 0.0 0.0
		}
	}
}
MOTION
Frames: 8
Frame Time: 0.0333333333333333
0 18.08466 0 0 0 0 0 0 0 0 -90 0 0 0 0 0 0 0 0 0 -90 0 0 0 0 0 0 0 0 90 0 0 0 0 0 0 0 0 0 0 0 0 0 0 0 0 0 0 0 0 0 0 0 0 0 0 0 0 0 0
-0.250876976549625 0 -0.0792095782235265 0 0.0866371016944022 0 0 17.5766551017761 0 -2.73808324318796 9.31803129335015E-18 0.622929486425369 7.19425467084546 -1.60662394056428 1.70631156746191 -20.0078197883664 -6.48480452196166 9.5067337182986 7.9319419986483 -2.26412280420005 -8.75833351675812 9.46703663306224 0 0 0 0 0 6.49774704209739 -6.9795299373243 11.0067623711488 3.44131995009829 0 0 0 0 0 -2.13107496682704 0.941522801488267 -2.18835065193232 -1.93703673941715 0 0 7.18422948222864 -1.42974854930049 1.4424345652613 4.30238677962706 -5.22175991856331 2.51138248860407 -0.279574770530416 0 0 -1.58562876072759 6.09728221919239 -3.35035713779471 0 0 0 0 0 0
-0.55414874702692 0 -0.111522741988301 0 0.0651011715622068 0 0 17.5716544270515 0 -3.67274681510784 -0.408342321902193 0.530344669262985 6.91330158765072 -0.565582148542029 3.1481860296689 -19.5133298773248 -5.64626030509537 9.15347639079907 5.68904155977679 -7.05786856883315 -12.8283547686667 8.40495929259818 0 0 0 0 0 2.62790235169804 -5.39022154241951 16.1784500976514 1.36103866913863 0 0 0 0 0 0.610903994385916 0.10986818897078 -2.05991608978003 -3.46191168978541 0 0 6.48843346930343 -1.14004384677853 1.57055516688771 6.65210837319936 -4.08352675579967 2.50695399866689 -1.06547706712343 0 0 -2.17646834932402 5.33609078597506 -3.23822906097979 0 0 0 0 0 0
-0.89337487667799 0 -0.0828022137284279 0 0.042338922854793 0 0 17.5697662353516 0 -4.82844083581052 -0.43094798871231 -0.12794977386073 6.277290427678 0.275129975082181 4.2579943288073 -18.3650338216859 -4.50133023633955 8.43865982021369 4.9491903136106 -12.3309105016851 -18.1970067337356 7.12700571256623 0 0 0 0 0 -1.25007230745149 -3.58287392410757 22.9759101548364 -0.00194711667789938 0 0 0 0 0 3.65643339394126 -0.0547955530790323 -1.29544753895014 -4.90939013813025 0 0 6.05352970798228 -0.902644034549593 1.48492967690407 9.27121312859199 -2.75127532469789 3.27721021954685 -1.60821361024787 0 0 -3.07125921842577 3.87936962000969 -3.32797957348341 0 0 0 0 0 0
-1.30334379076958 0 -0.0580888472497463 0 0.0211956725170207 0 0 17.5550838828087 0 -6.46856225537733 -0.399164406350881 -0.835082306562409 4.84003111929039 1.11953933458259 5.01819854164988 -16.8476064699305 -3.45208276197149 7.33284379290786 5.49085979070614 -17.504121591691 -25.453176912332 5.08866766280427 0 0 0 0 0 -5.22591842410112 -0.0766648771830747 30.950849206219 -0.000234587441080017 0 0 0 0 0 7.67568309015378 -0.454503202310117 -0.513806181806075 -6.88663513397421 0 0 5.653519398346 -0.573380218256386 1.40673724922223 12.9365973422236 -1.3060895893722 3.94472568100293 -2.55564462466768 0 0 -4.10806485248826 3.00048352229652 -3.202126882497 0 0 0 0 0 0
-1.79075725376606 0 -0.0489989504218102 0 0.0156991905052149 0 0 17.5178817987442 0 -8.6690420852452 -0.103240061217466 -1.44736616658794 2.49577859459091 1.81365218405703 5.14346449701016 -15.3205916225025 -2.68270887220167 5.86472894095233 5.83193361832114 -22.7316957234315 -34.000075038028 1.63911765492124 0 0 0 0 0 -9.18706357314235 5.88981081018662 39.0242173929752 -0.0002398609420094 0 0 0 0 0 12.987154551537 -1.75290610164186 -0.0237759354548627 -9.89953274904391 0 0 5.54432801916155 0.283962340528205 1.36149613045258 18.5099050486483 -0.130714332101505 4.2451907582099 -5.44816912023919 0 0 -4.84741277913751 2.88628331721593 -2.7772749338727 0 0 0 0 0 0
-2.36581055521965 0 -0.0668516401201487 0 0.0264076251354811 0 0 17.4258829712868 0 -11.2600420050674 0.199543898225516 -1.51253380707272 -1.13042841500565 2.58161101672884 4.03089604744165 -13.752128015872 -2.3382869977402 3.83116795000837 4.06465752267821 -30.1581554531685 -42.3630310925787 -0.000669446813353434 0 0 0 0 0 -12.811379654566 15.2352665501157 45.9317706848074 -0.000158439406569084 0 0 0 0 0 20.2453316591892 -3.69100946963102 -0.452095709522812 -15.3882147094582 0 0 6.37196712194006 1.8523143224147 1.32862645979856 26.5040656325536 0.644971089831049 4.13023836363183 -11.87201795681 0 0 -5.14154214091933 1.84739769542049 -2.42748561911898 0 0 0 0 0 0
-3.02434640824795 0 -0.118166825547814 0 0.0585115169781305 0 0 17.2133525729179 0 -13.9318754106454 0.59203144593344 -0.776002441253212 -5.75105493686607 2.72599881353461 1.56186784996968 -12.1459976407689 -2.30234347038195 1.22963736995864 0.546362267654666 -40.3741080953491 -49.2662045398637 -3.77937587867099E-06 0 0 0 0 0 -14.727255267107 28.7655269098781 50.6958882874854 -4.78927919863666E-05 0 0 0 0 0 29.486188696621 -5.83279823679845 -2.28196494818674 -23.7900184546599 0 0 8.33976347129251 4.10356022109547 1.25333686324182 36.7761242510882 0.886341552255448 3.26518104228182 -21.7907332921379 0 0 -6.33151047037608 0.776389334884328 -2.13751992879315 0 0 0 0 0 0
